<svg width="100" height="68" viewBox="0 0 100 68" fill="none" xmlns="http://www.w3.org/2000/svg">
<path fill-rule="evenodd" clip-rule="evenodd" d="M72.1 65.9C70.9 63.7 75.9 59.8 77.4 57.9C70.9 58.1 77.1 54.1 80.7 56.1C80.7 57.4 73.1 65.8 72.1 65.9ZM68.9 63.6C71.2 62.8 76.4 52.2 71.1 57C71.2 59 66.8 61.2 68.9 63.6ZM98.8 33.6C98.8 43.4 77.3 51.3 69.7 51.4C66.6 54.5 61.9 66.3 56.8 67.3C54.5 63.7 63.5 51.8 66.9 48.7C66.9 47.2 62.3 49.4 64 44.9C62 45.3 54.8 51.6 55.4 44.9C51.8 47.1 45.4 51.8 42 47.4C39.9 47.6 33.4 53.3 32.9 47.6C29.9 49.7 30.4 49.5 27.6 49.5C22.8 52.6 8.2 61.4 8.2 49.2C11.4 37.5 3.3 54.5 1 48C1 43.1 17.4 20.9 20.3 23C20.3 24.3 11.8 32.5 10.3 34.2C9.8 35 0.6 47.6 3 47.9C11.4 43.5 14.2 34.1 21.3 29.1C25.7 29.7 19 34.6 17.3 36.6C14.1 38.9 5.4 50.8 12 54.1C18.5 54.1 22.3 50.6 27.6 47.9C30.4 43.5 33.8 40.5 37.8 37.7C46.3 33.8 52.4 22.6 56.6 14.4C57.8 10.4 59.3 7.1 56.8 3.5C46.9 -3.9 26.9 7.6 19.2 14C18.4 13 27.6 6.3 29.8 6C34.6 2.3 44.4 0 50.7 0C70.9 2.7 50 29.4 43 36.4C43 37 44.7 38.5 42.5 37.6C41.2 37.7 33.8 47.1 34.6 48.6C42.2 48.6 42.6 40.3 47.4 36.3C47.6 35 55.8 27.9 57.3 31.8C56.8 36.8 46.9 43.4 43.3 46.2C43.3 51.3 55.4 43.1 56.5 42.5C56.9 41.9 62.7 35 62.7 35C58.1 33.6 59.4 32.5 63.8 33.7C66 33.3 67.2 29 69.9 30.5C69.9 33.5 63.1 36.2 73.9 34.3C74.7 33.5 79 29.5 78.8 32.8C75.6 35.5 86.5 32.9 88.2 31C92.4 33.7 77.8 35.4 75.8 35.6C73.8 36.9 64.8 44 65.2 46.9C69.4 46.9 75.6 39.8 78.7 37.1C79.6 37 79.9 37.8 80.8 37.6C84.2 35 95.8 28.2 98.8 33.6ZM44 43.8C46.3 42.5 56.1 34.8 55.8 32.2C53 31.9 43.1 41.6 44 43.8ZM33.9 42.9C34.2 42.7 34.5 42.6 34.9 42.4C36.3 40.5 34.2 42 33.9 42.9ZM62.3 37.7C63 37 63.8 36.3 64.5 35.7C64.2 34.9 62.5 37.1 62.3 37.7ZM69.3 38.3C73.9 35.1 71 35.8 66.2 35.7C63.6 38.3 56.7 42.6 56.9 46.7C61.1 46 66.7 41.5 69.3 38.3ZM68.3 51C67.5 46.3 58.6 62.4 58 64.9C62.2 60.9 65.2 55.7 68.3 51ZM70.5 47C69.9 47.5 68.3 48.5 69 49.4C69.5 48.9 70.5 47.7 70.5 47ZM96.9 33.3C89.5 31 72.6 42.9 70.6 50.2C78 49.8 85.7 45 92 41.4C93.4 40.1 99.4 35.3 96.9 33.3Z" fill="#FF5A30"/>
</svg>
