<svg width="16" height="17" viewBox="0 0 16 17" fill="none" xmlns="http://www.w3.org/2000/svg">
<path d="M8.66602 4.83268C8.66602 4.46449 8.36754 4.16602 7.99935 4.16602C7.63116 4.16602 7.33268 4.46449 7.33268 4.83268V8.49935C7.33268 8.67616 7.40292 8.84573 7.52794 8.97075L9.52794 10.9708C9.78829 11.2311 10.2104 11.2311 10.4708 10.9708C10.7311 10.7104 10.7311 10.2883 10.4708 10.0279L8.66602 8.22321V4.83268Z" fill="#787A80"/>
<path fill-rule="evenodd" clip-rule="evenodd" d="M7.99935 1.16602C3.94926 1.16602 0.666016 4.44926 0.666016 8.49935C0.666016 12.5494 3.94926 15.8327 7.99935 15.8327C12.0494 15.8327 15.3327 12.5494 15.3327 8.49935C15.3327 4.44926 12.0494 1.16602 7.99935 1.16602ZM1.99935 8.49935C1.99935 5.18564 4.68564 2.49935 7.99935 2.49935C11.3131 2.49935 13.9993 5.18564 13.9993 8.49935C13.9993 11.8131 11.3131 14.4993 7.99935 14.4993C4.68564 14.4993 1.99935 11.8131 1.99935 8.49935Z" fill="#787A80"/>
</svg>
