<svg width="20" height="20" viewBox="0 0 20 20" xmlns="http://www.w3.org/2000/svg">
<path d="M18.3285 18.3327L18.3327 18.332V12.2195C18.3327 9.22921 17.6889 6.92574 14.1931 6.92574C12.5125 6.92574 11.3848 7.84796 10.9243 8.72227H10.8757V7.2049H7.56115V18.332H11.0125V12.8223C11.0125 11.3716 11.2875 9.9688 13.0841 9.9688C14.8542 9.9688 14.8806 11.6244 14.8806 12.9153V18.3327H18.3285Z" />
<path d="M1.94101 7.2056H5.39657V18.3327H1.94101V7.2056Z" />
<path d="M3.6674 1.66602C2.56254 1.66602 1.66602 2.56254 1.66602 3.6674C1.66602 4.77227 2.56254 5.68754 3.6674 5.68754C4.77227 5.68754 5.66879 4.77227 5.66879 3.6674C5.6681 2.56254 4.77157 1.66602 3.6674 1.66602Z" />
</svg>
