<svg width="24" height="24" viewBox="0 0 24 24" fill="none" xmlns="http://www.w3.org/2000/svg">
<g opacity="0.6">
<path fill-rule="evenodd" clip-rule="evenodd" d="M21.3903 4.11358C22.4182 4.39044 23.2288 5.20086 23.5055 6.22899C24.0197 8.10691 23.9999 12.0213 23.9999 12.0213C23.9999 12.0213 23.9999 15.9158 23.5057 17.7939C23.2288 18.8218 22.4184 19.6324 21.3903 19.9091C19.5122 20.4035 12 20.4035 12 20.4035C12 20.4035 4.50731 20.4035 2.60961 19.8895C1.58148 19.6127 0.771054 18.802 0.4942 17.7741C0 15.9158 0 12.0015 0 12.0015C0 12.0015 0 8.10691 0.4942 6.22899C0.770871 5.20104 1.60125 4.37066 2.60943 4.09399C4.48753 3.59961 11.9998 3.59961 11.9998 3.59961C11.9998 3.59961 19.5122 3.59961 21.3903 4.11358ZM15.8549 12.0016L9.60788 15.5996V8.40355L15.8549 12.0016Z" fill="white"/>
</g>
</svg>
